<?xml version="1.0" standalone="no"?>
<!DOCTYPE svg PUBLIC "-//W3C//DTD SVG 20010904//EN"
 "http://www.w3.org/TR/2001/REC-SVG-20010904/DTD/svg10.dtd">
<svg version="1.0" xmlns="http://www.w3.org/2000/svg"
 width="512.000000pt" height="512.000000pt" viewBox="0 0 512.000000 512.000000"
 preserveAspectRatio="xMidYMid meet">
<metadata>
Created by potrace 1.14, written by Peter Selinger 2001-2017
</metadata>
<g transform="translate(0.000000,512.000000) scale(0.100000,-0.100000)"
fill="#000000" stroke="none">
<path d="M2960 5101 c-115 -36 -209 -122 -252 -233 -19 -48 -22 -76 -23 -275
l-2 -223 73 -52 c72 -52 73 -54 74 -98 l0 -45 -162 -1 c-211 -1 -227 -3 -325
-51 -87 -42 -137 -99 -218 -248 -21 -38 -55 -101 -77 -138 -21 -38 -38 -70
-38 -72 0 -3 -230 -426 -300 -552 l-29 -51 365 -366 365 -366 -145 0 c-136 0
-155 2 -279 36 -301 82 -395 88 -562 37 -142 -43 -256 -126 -356 -260 l-40
-53 -514 0 -515 0 0 -500 0 -500 173 0 172 0 -1 -540 -1 -540 21 -1 c12 0 111
-1 221 -2 l200 0 3 541 2 542 105 0 c77 0 105 -3 106 -12 0 -7 1 -111 1 -230
l1 -218 693 0 694 0 0 230 0 230 75 0 75 0 0 -540 c0 -507 1 -540 18 -541 22
-1 953 -1 968 0 8 1 11 153 12 529 1 290 2 533 2 540 0 8 20 12 69 12 l68 0 6
-58 c8 -97 62 -174 151 -219 46 -24 64 -27 176 -29 69 -1 139 -3 156 -3 l30
-1 0 -385 -1 -385 30 -1 c35 -1 395 -1 411 0 7 1 10 116 9 373 0 205 2 380 6
388 6 13 42 15 237 14 l229 -1 -3 66 c-5 102 -14 139 -62 234 -2 4 13 7 34 7
l37 0 -6 113 c-4 61 -7 172 -7 245 l0 132 -30 0 c-35 0 -36 3 -11 44 28 45 44
112 43 183 -2 158 -103 297 -257 349 -39 13 -91 17 -245 19 l-195 1 -57 -75
-57 -76 -66 0 c-62 0 -66 1 -72 25 -28 116 -145 232 -268 265 -16 5 -33 9 -37
10 -5 2 -40 3 -80 4 l-72 1 359 360 c198 198 361 365 363 370 3 8 -68 141
-299 565 -67 123 -176 322 -190 345 -39 68 -128 142 -208 174 -64 25 -108 30
-288 30 l-163 1 0 42 c0 41 2 44 75 98 l76 56 -1 212 c-1 229 -8 272 -58 352
-46 75 -126 135 -211 161 -49 15 -159 17 -201 5z m-496 -1691 c9 -47 17 -94
19 -105 3 -11 7 -41 11 -66 8 -52 11 -73 32 -179 8 -41 14 -109 14 -150 l0
-75 -152 152 -151 151 29 50 c16 28 63 109 104 180 41 72 76 129 77 128 1 -1
9 -40 17 -86z m1293 -66 c49 -80 96 -159 106 -176 l18 -30 -171 -171 c-93 -94
-170 -164 -171 -156 -6 86 6 199 32 312 17 73 32 141 35 152 35 169 49 223 55
219 5 -3 48 -70 96 -150z"/>
</g>
</svg>
